<svg width="146" height="25" viewBox="0 0 146 25" fill="none" xmlns="http://www.w3.org/2000/svg">
<path d="M2.375 17.6562C1.75 17.3021 1.27083 16.8021 0.9375 16.1562C0.604167 15.5104 0.416667 14.8958 0.375 14.3125C0.4375 13.8125 0.572917 13.4271 0.78125 13.1562C0.96875 12.8646 1.19792 12.6354 1.46875 12.4688C1.73958 12.2812 2.02083 12.1458 2.3125 12.0625C2.60417 11.9583 2.88542 11.875 3.15625 11.8125L3.625 11.9688C3.72917 12.0729 3.83333 12.1667 3.9375 12.25C4.0625 12.3333 4.17708 12.4167 4.28125 12.5C4.48958 12.4167 4.61458 12.2917 4.65625 12.125C4.71875 11.9583 4.78125 11.7917 4.84375 11.625C4.90625 11.3958 4.97917 11.1667 5.0625 10.9375C5.14583 10.7083 5.25 10.4792 5.375 10.25C5.35417 10.0625 5.36458 9.89583 5.40625 9.75C5.44792 9.60417 5.48958 9.47917 5.53125 9.375C5.40625 9.27083 5.3125 9.21875 5.25 9.21875C5.20833 9.19792 5.125 9.16667 5 9.125C4.9375 9.125 4.875 9.125 4.8125 9.125C4.75 9.10417 4.67708 9.08333 4.59375 9.0625C4.28125 8.83333 4.07292 8.64583 3.96875 8.5C3.88542 8.33333 3.79167 8.16667 3.6875 8C3.58333 7.83333 3.48958 7.6875 3.40625 7.5625C3.32292 7.4375 3.22917 7.32292 3.125 7.21875L2.75 6.96875L2.9375 6.59375C2.97917 6.55208 3 6.5 3 6.4375C3 6.35417 2.95833 6.23958 2.875 6.09375C2.8125 5.82292 2.80208 5.625 2.84375 5.5L2.90625 5.125C3.11458 4.85417 3.22917 4.69792 3.25 4.65625L3.5625 4.34375C4.04167 4.21875 4.53125 4.08333 5.03125 3.9375C5.53125 3.77083 6.02083 3.60417 6.5 3.4375C6.97917 3.27083 7.46875 3.10417 7.96875 2.9375C8.46875 2.77083 8.96875 2.625 9.46875 2.5C9.63542 2.35417 9.8125 2.27083 10 2.25C10.2083 2.20833 10.3958 2.17708 10.5625 2.15625C10.7083 2.15625 10.8438 2.14583 10.9688 2.125C11.0938 2.10417 11.1875 2.05208 11.25 1.96875C11.6042 1.84375 11.9479 1.73958 12.2812 1.65625C12.9062 1.48958 13.7292 1.29167 14.75 1.0625C15.7708 0.833333 16.9167 0.666667 18.1875 0.5625L18.8438 0.53125C18.9688 0.552083 19.0938 0.5625 19.2188 0.5625C19.3438 0.541667 19.4688 0.53125 19.5938 0.53125C20.6771 0.53125 21.3958 0.864583 21.75 1.53125C21.9583 1.63542 22.1458 1.77083 22.3125 1.9375C22.4792 2.08333 22.6354 2.22917 22.7812 2.375C22.8854 2.47917 22.9792 2.57292 23.0625 2.65625C23.1458 2.71875 23.2188 2.77083 23.2812 2.8125L23.5312 3.0625C23.7604 3.5625 23.8021 4.05208 23.6562 4.53125C23.5312 4.78125 23.3958 4.92708 23.25 4.96875C23.1042 5.01042 22.9583 5.05208 22.8125 5.09375L22.4062 5.3125C22.1354 5.29167 21.9271 5.28125 21.7812 5.28125C21.6562 5.28125 21.5104 5.28125 21.3438 5.28125C20.7188 5.28125 19.9896 5.32292 19.1562 5.40625C18.3438 5.46875 17.5104 5.57292 16.6562 5.71875C15.8021 5.84375 14.9688 6.01042 14.1562 6.21875C13.3438 6.40625 12.6354 6.61458 12.0312 6.84375C11.8646 6.96875 11.6458 7.08333 11.375 7.1875C11.3125 7.20833 11.2188 7.26042 11.0938 7.34375C11.1146 7.51042 11.1146 7.67708 11.0938 7.84375C11.0729 7.98958 11.0417 8.13542 11 8.28125C10.9792 8.38542 10.9583 8.5 10.9375 8.625C10.9375 8.72917 10.9271 8.84375 10.9062 8.96875C10.4688 9.48958 10.2604 10.1042 10.2812 10.8125L10.125 11.125C10.0417 11.2083 9.96875 11.3333 9.90625 11.5C9.86458 11.6458 9.86458 11.8021 9.90625 11.9688L10.0312 12.3438C10.4479 12.3021 10.8542 12.2604 11.25 12.2188C11.6667 12.1562 12.1042 12.0938 12.5625 12.0312C13.1458 11.9271 13.7292 11.8438 14.3125 11.7812C14.9167 11.6979 15.5417 11.6562 16.1875 11.6562H17.4062L17.125 11.9375L17.4688 11.9688L17.2812 12.4688C17.4271 12.5312 17.5312 12.5833 17.5938 12.625C17.6771 12.6458 17.75 12.6771 17.8125 12.7188L18.0312 13.0312C18.1354 13.0938 18.2292 13.1979 18.3125 13.3438C18.3958 13.4688 18.4479 13.6458 18.4688 13.875L18.375 14.1875L16.9062 16.0625L16.7188 16.3125L16.4062 16.2188C16.0104 16.1979 15.6354 16.2396 15.2812 16.3438C15.1146 16.3854 14.9375 16.4375 14.75 16.5C14.5625 16.5417 14.375 16.5625 14.1875 16.5625C13.6875 16.6458 13.2708 16.7188 12.9375 16.7812C12.6042 16.8229 12.2708 16.8646 11.9375 16.9062C11.4792 16.9896 11.0312 17.0729 10.5938 17.1562C10.1771 17.2188 9.78125 17.3229 9.40625 17.4688C9.17708 17.4896 9.04167 17.5 9 17.5C8.95833 17.4792 8.91667 17.4688 8.875 17.4688C8.66667 17.4688 8.45833 17.5 8.25 17.5625C8.04167 17.625 7.84375 17.6875 7.65625 17.75C7.53125 17.8542 7.44792 17.9688 7.40625 18.0938C7.36458 18.1979 7.32292 18.3125 7.28125 18.4375C7.23958 18.5833 7.17708 18.7292 7.09375 18.875C7.03125 19 6.94792 19.1354 6.84375 19.2812L6.875 19.8438C6.6875 19.8854 6.59375 19.9167 6.59375 19.9375C6.59375 19.9375 6.58333 19.9375 6.5625 19.9375C6.5625 20.1042 6.53125 20.2604 6.46875 20.4062C6.42708 20.5521 6.38542 20.6875 6.34375 20.8125C6.30208 20.8958 6.27083 20.9688 6.25 21.0312C6.22917 21.0938 6.21875 21.1562 6.21875 21.2188C6.42708 21.5938 6.47917 22.0208 6.375 22.5C6.29167 22.8958 6.13542 23.25 5.90625 23.5625C5.67708 23.8542 5.40625 24.0833 5.09375 24.25C4.76042 24.2917 4.51042 24.2812 4.34375 24.2188C4.19792 24.1562 4.04167 24.0938 3.875 24.0312C3.77083 23.9896 3.66667 23.9583 3.5625 23.9375C3.45833 23.8958 3.35417 23.8646 3.25 23.8438L2.875 23.5312C2.8125 23.4062 2.73958 23.2917 2.65625 23.1875C2.57292 23.0625 2.48958 22.9375 2.40625 22.8125C2.30208 22.6667 2.19792 22.5208 2.09375 22.375C1.98958 22.2292 1.89583 22.0625 1.8125 21.875C1.66667 21.1458 1.63542 20.5417 1.71875 20.0625C1.82292 19.5625 1.95833 19.0729 2.125 18.5938C2.16667 18.4271 2.20833 18.2708 2.25 18.125C2.29167 17.9792 2.33333 17.8229 2.375 17.6562ZM25.3902 24L28.7182 7.2H30.9903L27.6622 24H25.3902ZM30.8302 3.488C30.3822 3.488 30.0089 3.33867 29.7102 3.04C29.4329 2.74133 29.2943 2.38933 29.2943 1.984C29.2943 1.51467 29.4543 1.10933 29.7743 0.768C30.1156 0.426666 30.5422 0.255999 31.0542 0.255999C31.5022 0.255999 31.8756 0.394665 32.1742 0.671999C32.4729 0.949333 32.6222 1.30133 32.6222 1.728C32.6222 2.24 32.4516 2.66667 32.1102 3.008C31.7689 3.328 31.3422 3.488 30.8302 3.488ZM33.984 24L38.72 0.255999H40.992L36.256 24H33.984ZM66.5138 7.04C68.0284 7.04 69.2551 7.33867 70.1938 7.936C71.1538 8.512 71.8151 9.35467 72.1778 10.464C72.5404 11.5733 72.5618 12.896 72.2418 14.432L70.3218 24H68.0498L69.9698 14.4C70.3111 12.736 70.1511 11.4347 69.4898 10.496C68.8498 9.55733 67.6764 9.088 65.9698 9.088C64.2844 9.088 62.8658 9.55733 61.7138 10.496C60.5831 11.4347 59.8257 12.8427 59.4417 14.72L57.5858 24H55.3138L57.2337 14.4C57.5751 12.736 57.4151 11.4347 56.7537 10.496C56.0924 9.55733 54.9191 9.088 53.2338 9.088C51.5058 9.088 50.0764 9.57867 48.9457 10.56C47.8151 11.5413 47.0471 13.0133 46.6417 14.976L44.8497 24H42.5777L45.9057 7.2H48.0817L47.1217 12.032L46.6417 11.2C47.4524 9.74933 48.4764 8.69333 49.7137 8.032C50.9511 7.37067 52.3484 7.04 53.9058 7.04C55.0791 7.04 56.0818 7.24267 56.9138 7.648C57.7671 8.032 58.4284 8.608 58.8978 9.376C59.3884 10.1227 59.6551 11.0187 59.6978 12.064L58.5138 11.808C59.3458 10.208 60.4444 9.01333 61.8097 8.224C63.1964 7.43467 64.7644 7.04 66.5138 7.04ZM76.5153 24L79.8433 7.2H82.1153L78.7873 24H76.5153ZM81.9553 3.488C81.5073 3.488 81.1339 3.33867 80.8353 3.04C80.5579 2.74133 80.4193 2.38933 80.4193 1.984C80.4193 1.51467 80.5793 1.10933 80.8993 0.768C81.2406 0.426666 81.6673 0.255999 82.1793 0.255999C82.6273 0.255999 83.0006 0.394665 83.2993 0.671999C83.5979 0.949333 83.7473 1.30133 83.7473 1.728C83.7473 2.24 83.5766 2.66667 83.2353 3.008C82.8939 3.328 82.4673 3.488 81.9553 3.488ZM96.661 7.04C98.1757 7.04 99.413 7.33867 100.373 7.936C101.354 8.512 102.026 9.35467 102.389 10.464C102.773 11.5733 102.805 12.896 102.485 14.432L100.565 24H98.293L100.213 14.4C100.554 12.736 100.373 11.4347 99.669 10.496C98.9863 9.55733 97.7703 9.088 96.021 9.088C94.229 9.088 92.7357 9.57867 91.541 10.56C90.3677 11.5413 89.5783 13.0133 89.173 14.976L87.381 24H85.109L88.437 7.2H90.613L89.653 12.032L89.173 11.2C89.9837 9.74933 91.029 8.69333 92.309 8.032C93.6103 7.37067 95.061 7.04 96.661 7.04ZM113.902 24.16C112.473 24.16 111.203 23.872 110.094 23.296C108.985 22.72 108.121 21.8987 107.502 20.832C106.883 19.7653 106.574 18.496 106.574 17.024C106.574 15.5947 106.809 14.272 107.278 13.056C107.747 11.84 108.409 10.784 109.262 9.888C110.115 8.97067 111.118 8.26667 112.27 7.776C113.443 7.28533 114.713 7.04 116.078 7.04C117.55 7.04 118.798 7.30667 119.822 7.84C120.846 8.352 121.635 9.10933 122.19 10.112C122.745 11.0933 123.022 12.288 123.022 13.696C123.022 15.2107 122.809 16.608 122.382 17.888C121.977 19.168 121.369 20.2773 120.558 21.216C119.747 22.1547 118.777 22.88 117.646 23.392C116.537 23.904 115.289 24.16 113.902 24.16ZM114.382 22.144C115.79 22.144 117.038 21.8133 118.126 21.152C119.235 20.4693 120.099 19.5307 120.718 18.336C121.358 17.1413 121.678 15.7867 121.678 14.272C121.678 12.608 121.187 11.3173 120.206 10.4C119.246 9.48267 117.891 9.024 116.142 9.024C114.755 9.024 113.507 9.36533 112.398 10.048C111.289 10.7307 110.414 11.6693 109.774 12.864C109.155 14.0373 108.846 15.392 108.846 16.928C108.846 18.5707 109.326 19.8507 110.286 20.768C111.267 21.6853 112.633 22.144 114.382 22.144ZM119.918 24L120.878 19.168L121.838 15.776L122.158 12.256L124.558 0.255999H126.83L122.094 24H119.918ZM135.91 24.16C134.352 24.16 132.998 23.872 131.846 23.296C130.715 22.6987 129.83 21.8667 129.19 20.8C128.571 19.7333 128.262 18.4747 128.262 17.024C128.262 15.104 128.678 13.3973 129.51 11.904C130.342 10.3893 131.494 9.20533 132.966 8.352C134.438 7.47733 136.112 7.04 137.99 7.04C139.547 7.04 140.891 7.328 142.022 7.904C143.174 8.48 144.059 9.30133 144.678 10.368C145.318 11.4347 145.638 12.6933 145.638 14.144C145.638 16.064 145.222 17.7813 144.39 19.296C143.558 20.7893 142.406 21.9733 140.934 22.848C139.483 23.7227 137.808 24.16 135.91 24.16ZM136.07 22.144C137.478 22.144 138.726 21.8133 139.814 21.152C140.923 20.4693 141.787 19.5307 142.406 18.336C143.046 17.1413 143.366 15.7867 143.366 14.272C143.366 12.608 142.875 11.3173 141.894 10.4C140.934 9.48267 139.579 9.024 137.83 9.024C136.443 9.024 135.195 9.36533 134.086 10.048C132.976 10.7307 132.102 11.6693 131.462 12.864C130.843 14.0373 130.534 15.392 130.534 16.928C130.534 18.5707 131.014 19.8507 131.974 20.768C132.955 21.6853 134.32 22.144 136.07 22.144Z" fill="black"/>
</svg>
